<?xml version="1.0" encoding="utf-8"?>
<!-- Generated by IcoMoon.io -->
<!DOCTYPE svg PUBLIC "-//W3C//DTD SVG 1.1//EN" "http://www.w3.org/Graphics/SVG/1.1/DTD/svg11.dtd">
<svg version="1.1" xmlns="http://www.w3.org/2000/svg" xmlns:xlink="http://www.w3.org/1999/xlink" width="448" height="448" viewBox="0 0 448 448">
<g id="icomoon-ignore">
</g>
<path d="M0 344v-240q0-29.75 21.125-50.875t50.875-21.125h240q29.75 0 50.875 21.125t21.125 50.875v240q0 29.75-21.125 50.875t-50.875 21.125h-48v-152h50.75l7.5-56h-58.25v-35.75q0-13.5 7-20.75t24-7.25l33-0.25v-51.75q-24-2.25-45-2.25-34 0-54.5 20.125t-20.5 56.375v41.5h-56v56h56v152h-136q-29.75 0-50.875-21.125t-21.125-50.875z"></path>
</svg>
