<?xml version="1.0" encoding="utf-8"?>
<!-- Generated by IcoMoon.io -->
<!DOCTYPE svg PUBLIC "-//W3C//DTD SVG 1.1//EN" "http://www.w3.org/Graphics/SVG/1.1/DTD/svg11.dtd">
<svg version="1.1" xmlns="http://www.w3.org/2000/svg" xmlns:xlink="http://www.w3.org/1999/xlink" width="448" height="448" viewBox="0 0 448 448">
<g id="icomoon-ignore">
</g>
<path d="M0 344v-240q0-29.75 21.125-50.875t50.875-21.125h240q29.75 0 50.875 21.125t21.125 50.875v240q0 29.75-21.125 50.875t-50.875 21.125h-240q-29.75 0-50.875-21.125t-21.125-50.875zM64 312.5q37 23.5 80.5 23.5 28 0 52.5-8.875t42-23.75 30.125-34.25 18.75-40.5 6.125-42.125q0-4.5-0.25-6.75 15.75-11.25 26.25-27.25-14 6.25-30.25 8.5 17-10 23.25-29.25-16.25 9.5-33.5 12.75-15.25-16.5-38.25-16.5-21.75 0-37.125 15.375t-15.375 37.125q0 7.25 1.25 12-32.25-1.75-60.5-16.25t-48-38.75q-7.25 12.5-7.25 26.5 0 28.5 22.75 43.75-11.75-0.25-25-6.5v0.5q0 18.75 12.5 33.375t30.75 18.125q-7.25 2-12.75 2-3.25 0-9.75-1 5.25 15.75 18.625 26t30.375 10.5q-29 22.5-65.25 22.5-6.5 0-12.5-0.75z"></path>
</svg>
