<?xml version="1.0" encoding="utf-8"?>
<!-- Generated by IcoMoon.io -->
<!DOCTYPE svg PUBLIC "-//W3C//DTD SVG 1.1//EN" "http://www.w3.org/Graphics/SVG/1.1/DTD/svg11.dtd">
<svg version="1.1" xmlns="http://www.w3.org/2000/svg" xmlns:xlink="http://www.w3.org/1999/xlink" width="448" height="448" viewBox="0 0 448 448">
<g id="icomoon-ignore">
</g>
<path d="M0 344v-240q0-29.75 21.125-50.875t50.875-21.125h240q29.75 0 50.875 21.125t21.125 50.875v240q0 29.75-21.125 50.875t-50.875 21.125h-240q-29.75 0-50.875-21.125t-21.125-50.875zM54.5 292.5q0 44 5 65 2.5 10.75 10.625 18.25t18.875 8.75q34.25 3.75 103 3.75t103-3.75q10.75-1.25 18.875-8.75t10.625-18.25q5-21 5-65 0-44.25-4.75-65-2.5-11-10.75-18.375t-19-8.625q-34-3.75-103-3.75-68.75 0-102.75 3.75-11 1.25-19.125 8.625t-10.625 18.375q-5 21.75-5 65zM75 246.25v-17.5h58v17.5h-20v105.75h-18.5v-105.75h-19.5zM99 55.75l6 17.25t5.75 17.25q8.75 25.75 11.5 39.5v50.25h18.5v-50.25l22.5-74h-18.75l-12.75 48.75-13.25-48.75h-19.5zM135.5 332.75v-72.5h16.5v67.5q0 6 0.25 6.5 0.25 3.75 3.75 3.75 5 0 10.5-7.75v-70h16.75v91.75h-16.75v-10q-9.75 11.25-19 11.25-8.25 0-10.5-7-1.5-4-1.5-13.5zM163.5 150q0 14.5 5.25 21.75 6.75 9.5 19.5 9.5 12.25 0 19.5-9.5 5.25-6.75 5.25-21.75v-32.5q0-14.5-5.25-21.75-7.25-9.5-19.5-9.5-12.75 0-19.5 9.5-5.25 7.25-5.25 21.75v32.5zM180.25 153.25v-39q0-13 8-13t8 13v39q0 12.75-8 12.75t-8-12.75zM197.5 352v-123.25h16.75v40.25q8-10 17-10 10.25 0 13.25 10.5 1.75 5.25 1.75 18.5v36.5q0 13-1.75 18.25-3 10.5-13.25 10.5-8.75 0-17-10.25v9h-16.75zM214.25 334q4 4 8.25 4 7.25 0 7.25-12.25v-39.25q0-12.5-7.25-12.5-4.25 0-8.25 4v56zM226.75 160.75q0 9.25 1.5 13.75 2.75 6.75 10.75 6.75 9 0 19.25-11.25v10h16.75v-92.5h-16.75v70.75q-5.5 7.75-10.5 7.75-3.75 0-4-4-0.25-0.5-0.25-6.5v-68h-16.75v73.25zM259.25 322.25v-32.25q0-14.75 5-21.5 7.25-9.5 20-9.5t19.5 9.5q5.25 7 5.25 21.5v19h-33.25v16.25q0 12.75 8.5 12.75 6 0 7.5-6.5 0-0.25 0.125-1.75t0.125-4.125v-5.375h17v2.25q0 7.25-0.5 10.75-0.75 5.5-3.75 10-6.75 10-20 10-13 0-20.25-9.5-5.25-6.75-5.25-21.5zM275.75 295.25h16.5v-8.5q0-12.75-8.25-12.75t-8.25 12.75v8.5z"></path>
</svg>
